<svg width="100" height="100" viewBox="0 0 100 100" fill="none" xmlns="http://www.w3.org/2000/svg">
<rect opacity="0.15" x="0.5" y="0.5" width="99" height="99" rx="49.5" stroke="white"/>
<path d="M38.0006 50.5055C38.0006 44.0662 38.0006 37.6266 38.0006 31.1865C38.0006 29.1866 39.1842 28 41.1798 28H59.4729C61.4419 28 62.64 29.1915 62.64 31.1513V69.8365C62.64 71.8001 61.4419 73 59.4826 73H41.1907C39.1926 73 38.0006 71.8134 38.0006 69.8232C37.9998 63.3848 37.9998 56.9455 38.0006 50.5055ZM45.4009 29.452C43.9765 29.452 42.5884 29.452 41.2015 29.452C39.9793 29.452 39.4504 29.989 39.4504 31.2265C39.4504 44.0743 39.4504 56.9221 39.4504 69.7699C39.4504 71.0062 39.9805 71.5443 41.2028 71.5443H59.3555C60.6867 71.5443 61.1853 71.0425 61.1853 69.7105V31.3065C61.1853 31.1853 61.1853 31.0641 61.1853 30.9429C61.1623 30.0726 60.5609 29.463 59.692 29.4569C58.2579 29.4472 56.8238 29.4569 55.3897 29.4569C55.3277 29.4622 55.2661 29.4727 55.2058 29.4884C54.994 30.2362 54.7798 30.9756 54.5777 31.7174C54.4567 32.1598 54.1808 32.3622 53.7221 32.361C51.4228 32.3549 49.1331 32.361 46.8386 32.361C46.294 32.361 46.0955 32.1986 45.9539 31.6507C45.7724 30.9283 45.5921 30.2156 45.4009 29.452ZM53.6991 29.4787H46.91C47.031 29.9744 47.152 30.4338 47.2658 30.8895H53.3046C53.4353 30.4241 53.5636 29.9647 53.7003 29.4787H53.6991Z" fill="white"/>
<path d="M45.999 46.0498C46.2181 46.2219 46.5049 46.3371 46.5739 46.5346C46.6173 46.663 46.6343 46.7989 46.6239 46.9341C46.6135 47.0693 46.5759 47.201 46.5134 47.3213C46.1806 47.84 45.7606 48.3018 45.3746 48.7866C44.9885 49.2714 44.6327 49.7405 44.2382 50.1962C44.041 50.4241 44.0458 50.578 44.2382 50.8095C44.9873 51.715 45.7134 52.6385 46.4492 53.5609C46.6731 53.8409 46.7893 54.133 46.5993 54.4772C46.5483 54.5801 46.4725 54.6687 46.3788 54.735C46.2852 54.8013 46.1765 54.8433 46.0626 54.8571C45.9487 54.8709 45.8332 54.8562 45.7264 54.8142C45.6196 54.7722 45.5249 54.7043 45.4508 54.6166C44.4428 53.3936 43.4601 52.1489 42.4823 50.9017C42.2596 50.618 42.3092 50.2956 42.5307 50.0217C43.4807 48.829 44.427 47.6327 45.3927 46.4522C45.5234 46.2922 45.751 46.2146 45.999 46.0498Z" fill="white"/>
<path d="M58.3516 50.4824C58.2681 50.6811 58.1669 50.8717 58.049 51.0521C57.1422 52.2027 56.2285 53.3477 55.308 54.4871C54.9752 54.9004 54.5492 54.9719 54.2079 54.681C53.8666 54.3901 53.8545 53.995 54.1704 53.5901C54.8965 52.6653 55.6226 51.7393 56.3814 50.8351C56.6041 50.5673 56.5823 50.4037 56.3729 50.1491C55.6468 49.2655 54.9328 48.3625 54.22 47.4632C53.857 47.005 53.857 46.5966 54.22 46.3081C54.5831 46.0196 54.9861 46.1033 55.3467 46.5505C56.2447 47.6697 57.139 48.7912 58.0297 49.9152C58.1511 50.0959 58.2588 50.2855 58.3516 50.4824Z" fill="white"/>
<path d="M52.306 46.1492C52.974 46.1492 53.3298 46.6243 53.1773 47.0873C53.1287 47.2148 53.0666 47.3366 52.9922 47.4509C51.6206 49.7417 50.2491 52.0329 48.8775 54.3245C48.6972 54.6251 48.4903 54.8711 48.1042 54.8517C47.9947 54.8459 47.8879 54.8149 47.7921 54.7612C47.6964 54.7075 47.6143 54.6325 47.552 54.542C47.4898 54.4515 47.4492 54.3478 47.4333 54.2391C47.4174 54.1303 47.4267 54.0194 47.4604 53.9148C47.5095 53.7873 47.572 53.6654 47.6468 53.5512C49.0179 51.2604 50.3842 48.966 51.7711 46.6849C51.9224 46.4389 52.1886 46.2643 52.306 46.1492Z" fill="white"/>
<path d="M44.2059 68.6463C44.9901 68.6463 45.7792 68.6463 46.5609 68.6463C47.0934 68.6463 47.4177 68.93 47.4177 69.3736C47.4177 69.8172 47.0922 70.1008 46.5609 70.1008C44.9611 70.1008 43.3608 70.1008 41.7601 70.1008C41.2277 70.1008 40.9033 69.816 40.9033 69.3736C40.9033 68.9312 41.2252 68.6536 41.7601 68.6463C42.5758 68.6379 43.3902 68.6463 44.2059 68.6463Z" fill="white"/>
<path d="M49.2229 70.0922H48.9966C48.469 70.0801 48.1495 69.7964 48.1495 69.3553C48.1495 68.9141 48.4714 68.6547 48.9724 68.6414C49.1527 68.6414 49.3355 68.6414 49.5158 68.6414C50.0071 68.6583 50.323 68.9504 50.3169 69.3771C50.3109 69.8037 49.995 70.0764 49.494 70.0922C49.4032 70.0995 49.3125 70.0922 49.2229 70.0922Z" fill="white"/>
</svg>
