<svg width="100" height="100" viewBox="0 0 100 100" fill="none" xmlns="http://www.w3.org/2000/svg">
<rect opacity="0.15" x="0.5" y="0.5" width="99" height="99" rx="49.5" stroke="white"/>
<path d="M27 59.9102V31.7951C27.0288 31.7628 27.0516 31.7255 27.0671 31.6851C27.481 29.3909 29.4889 27.9934 31.7279 28C43.5877 28.0319 55.4486 28.0143 67.3096 28.0143C70.1122 28.0143 71.9989 29.8937 72 32.6842V59.0343C72 61.7984 70.1078 63.6866 67.3382 63.6877H53.9152V67.7293H54.6263C56.9556 67.7381 58.7312 69.2478 59.1285 71.5387C59.2386 72.156 59.1418 72.6699 58.5528 73H40.4472C40.096 72.7656 39.8252 72.4938 39.8351 72.0207C39.8634 70.974 40.2659 69.972 40.9696 69.1964C41.6734 68.4208 42.6319 67.923 43.6714 67.7931C44.1425 67.7359 44.6202 67.7249 45.0815 67.693V63.6877H44.5399C40.1954 63.6877 35.8499 63.6877 31.5033 63.6877C30.0583 63.6877 28.8743 63.1247 27.9511 61.9987C27.4425 61.3803 27.24 60.6398 27 59.9102ZM45.9742 54.8849C45.9819 54.7375 45.9907 54.6362 45.9929 54.535C46.0766 51.4463 46.2439 48.3642 46.7469 45.3097C46.7745 45.1369 46.6578 44.8882 46.5268 44.7518C45.2268 43.3928 44.8338 41.4705 45.7023 39.8079C46.693 37.9032 47.8048 36.0579 48.8946 34.2038C49.2754 33.5546 50.0592 33.6085 50.4555 34.2874C51.4517 35.9919 52.4589 37.6919 53.4155 39.4195C54.5163 41.4001 54.1563 43.4556 52.4809 44.9817C52.242 45.2018 52.2971 45.4076 52.318 45.6497C52.5305 48.0968 52.7517 50.544 52.9443 52.9934C52.9939 53.614 52.9521 54.2423 52.9521 54.8728H57.4102V35.0401C57.4102 34.0905 57.6876 33.8165 58.6475 33.8165H64.9319C65.9413 33.8165 66.1989 34.0773 66.1989 35.0984V54.8761H70.2421V32.7238C70.2421 30.8532 69.1688 29.776 67.3041 29.7749H31.7102C29.8389 29.7749 28.7579 30.8477 28.7579 32.7095C28.7579 39.9418 28.7579 47.1748 28.7579 54.4085V54.8673H32.8V54.3083C32.8 50.6486 32.8375 46.9866 32.7802 43.3279C32.7386 42.1334 33.0176 40.9496 33.5882 39.8992C34.5558 38.1145 35.4232 36.2736 36.3302 34.4547C36.5119 34.0905 36.7639 33.822 37.1999 33.8242C37.6358 33.8264 37.8889 34.096 38.0629 34.4635C38.0816 34.5031 38.1014 34.5427 38.1212 34.5812C39.2 36.739 40.2864 38.8935 41.3465 41.0601C41.4966 41.3732 41.5762 41.7154 41.5799 42.0625C41.5953 46.1624 41.5898 50.2623 41.5898 54.3611V54.8849H45.9742ZM70.2288 56.6884H28.7579C28.7579 57.4465 28.7579 58.1761 28.7579 58.9056C28.7579 60.8862 29.8026 61.9305 31.7939 61.9305H67.2017C67.3921 61.9305 67.5837 61.9305 67.7719 61.9173C69.1126 61.8072 70.1375 60.8169 70.2189 59.4789C70.274 58.5623 70.2288 57.6391 70.2288 56.6884V56.6884ZM59.2012 35.5913V54.8761H64.4178V53.1442C64.1437 53.1442 63.896 53.153 63.6473 53.1442C63.0793 53.121 62.6885 52.7557 62.6929 52.2639C62.6973 51.772 63.087 51.4133 63.6583 51.3935C63.9148 51.3836 64.1712 51.3935 64.42 51.3935V47.8724C64.1525 47.8724 63.9059 47.8801 63.6605 47.8724C63.0881 47.8526 62.6984 47.4972 62.6929 47.0031C62.6874 46.509 63.0771 46.1426 63.6451 46.1228C63.9026 46.1129 64.1613 46.1228 64.409 46.1228V43.482C64.1272 43.482 63.8773 43.4908 63.6296 43.482C63.0793 43.4567 62.7061 43.1067 62.6929 42.627C62.6797 42.1472 63.0693 41.7566 63.633 41.7313C63.8905 41.7192 64.1503 41.7313 64.4134 41.7313V39.0905C64.1668 39.0905 63.9489 39.0905 63.7309 39.0905C63.0969 39.0784 62.6852 38.7252 62.6929 38.2025C62.7006 37.6798 63.1101 37.3431 63.7507 37.3343C63.9775 37.3343 64.2043 37.3343 64.4178 37.3343V35.5913H59.2012ZM49.6475 36.3748C48.8186 37.8207 48.0018 39.1763 47.2654 40.5715C46.6996 41.64 47.0585 42.945 48.0272 43.7185C48.9474 44.4547 50.2694 44.4888 51.1578 43.8055C52.2046 42.9978 52.6119 41.7148 52.0439 40.6145C51.3119 39.206 50.4841 37.846 49.6475 36.3748ZM57.2121 71.235C57.0485 70.7235 56.7248 70.2781 56.2888 69.9643C55.8528 69.6505 55.3276 69.485 54.7904 69.4921C51.2789 69.48 47.7674 69.4866 44.2559 69.4921C44.124 69.4923 43.9923 69.5018 43.8618 69.5207C42.8623 69.6648 41.9905 70.3889 41.8121 71.2383L57.2121 71.235ZM34.5745 54.8673H36.295V42.6292H34.5745V54.8673ZM38.1091 42.6226V54.8662H39.8131V42.6226H38.1091ZM46.8878 67.704H52.1122V63.7196H46.8834L46.8878 67.704ZM48.3937 45.9875C48.211 47.748 48.025 49.5398 47.8356 51.3627H51.1809C50.9971 49.5504 50.8154 47.7689 50.6305 45.9875H48.3937ZM39.2847 40.8312C38.5813 39.425 37.9121 38.088 37.1932 36.6653L35.1117 40.8312H39.2847ZM47.7927 54.8695H51.2084V53.1673H47.7883L47.7927 54.8695Z" fill="white"/>
</svg>
